PathFileType	4	(X/Y/Z)	c:/Users/goper/Files/vsCode/490R/osim_files/C03/C03_SSW_03.trc
DataRate	CameraRate	NumFrames	NumMarkers	Units                	OrigDataRate	OrigDataStartFrame	OrigNumFrames
250.00	250.00	8	36	mm	250.0	1439	2301
                Frame#	Time	LPSIS			LASIS			LTH1			LTH2			LTH3			LTH4			LLFE			LMFE			LSH1			LSH2			LSH3			LSH4			LLMAL			LMMAL			LCAL			LMTP5			LTOE			LMTP1			RPSIS			RASIS			RTH1			RTH2			RTH3			RTH4			RLFE			RMFE			RSH1			RSH2			RSH3			RSH4			RLMAL			RMMAL			RCAL			RMTP1			RTOE			RMTP5		
		X1	Y1	Z1	X2	Y2	Z2	X3	Y3	Z3	X4	Y4	Z4	X5	Y5	Z5	X6	Y6	Z6	X7	Y7	Z7	X8	Y8	Z8	X9	Y9	Z9	X10	Y10	Z10	X11	Y11	Z11	X12	Y12	Z12	X13	Y13	Z13	X14	Y14	Z14	X15	Y15	Z15	X16	Y16	Z16	X17	Y17	Z17	X18	Y18	Z18	X19	Y19	Z19	X20	Y20	Z20	X21	Y21	Z21	X22	Y22	Z22	X23	Y23	Z23	X24	Y24	Z24	X25	Y25	Z25	X26	Y26	Z26	X27	Y27	Z27	X28	Y28	Z28	X29	Y29	Z29	X30	Y30	Z30	X31	Y31	Z31	X32	Y32	Z32	X33	Y33	Z33	X34	Y34	Z34	X35	Y35	Z35	X36	Y36	Z36

1439	5.75200	-351.70624	1038.46240	350.13058	-531.93036	985.85956	385.35480	-408.09824	635.24023	426.20230	-409.24835	573.61700	414.49222	-483.21881	633.51337	415.93857	-475.01767	572.94293	405.14020	-423.42725	487.30902	396.35333	-414.91470	488.33307	285.00024	-331.17880	315.11133	399.15295	-328.67587	269.18832	392.17831	-391.66711	309.73279	398.73141	-380.73660	263.46274	392.43320	-341.83975	107.49509	360.97168	-356.26514	116.34798	280.46576	-267.40298	73.88375	330.27591	-469.22620	49.84970	377.63254	-499.84387	61.72562	322.37082	-473.79919	50.43106	283.97705	-352.66870	1025.14453	237.16901	-523.36621	987.59167	178.62303	-544.49792	612.43353	162.11343	-572.35492	557.76813	172.79352	-594.50842	637.35382	129.00293	-629.91357	586.87415	133.08781	-644.57318	519.07538	146.30479	-660.75372	534.00446	260.14554	-478.58163	400.78094	160.51753	-458.52087	358.04160	161.72110	-525.92865	367.85062	136.24667	-499.11450	334.05118	140.28027	-418.69345	199.91206	165.95949	-449.70285	189.07860	240.46455	-347.74255	194.46567	217.61777	-524.24811	83.75728	218.09395	-546.96252	89.08867	175.97572	-476.57068	87.71365	123.31123
1440	5.75600	-356.69498	1038.52722	349.62994	-537.40778	986.12476	384.77341	-410.21503	635.68738	426.06256	-410.96063	573.98584	414.46289	-485.37598	633.10669	415.46439	-476.73325	572.87006	405.01682	-424.52133	487.47263	396.32141	-416.06680	488.49942	284.99258	-331.69455	315.56458	399.09427	-329.10114	269.62485	392.19824	-392.16605	309.86087	398.85443	-381.18051	263.73282	392.48410	-342.00684	107.74888	360.92932	-356.58554	116.66279	280.49683	-267.56976	74.21001	330.24136	-469.27069	49.84648	377.64117	-499.90829	61.67542	322.38751	-474.31732	50.71055	284.11331	-357.74036	1025.37036	236.75603	-528.88696	987.66083	178.63747	-551.68073	612.85065	161.46352	-579.69684	558.35272	172.10362	-601.77252	638.33612	128.85780	-636.95325	587.88287	133.08792	-652.11829	520.15460	146.36906	-667.73151	535.01221	260.00592	-488.90649	398.08829	160.30785	-469.68073	354.71921	161.49533	-536.63409	366.19733	136.10161	-510.11383	331.46722	140.40015	-433.56458	195.42715	166.06122	-464.90024	185.43503	240.00827	-362.75565	188.23203	217.60835	-542.15125	82.10646	216.88792	-564.82788	88.11027	174.12566	-494.13229	85.21714	122.30764
1441	5.76000	-361.51346	1038.62109	349.25299	-542.62866	985.88708	384.84384	-412.26126	636.05786	425.90140	-412.55057	574.35626	414.39072	-487.43945	633.01837	415.19162	-478.37012	572.81238	404.87274	-425.62784	487.70703	396.52396	-416.97751	488.62851	284.96274	-332.25671	315.96600	399.09964	-329.53192	270.03088	392.21768	-392.72202	310.11649	398.91385	-381.58887	263.99268	392.50760	-342.20984	108.02995	360.91293	-356.84448	116.91419	280.49857	-267.63559	74.59431	330.18063	-469.32016	49.83455	377.63345	-500.00125	61.61840	322.41061	-474.69006	50.51466	283.52496	-363.50330	1025.37268	236.21207	-534.34259	987.73517	178.64404	-558.25226	613.08948	160.71573	-586.92871	558.85187	171.43948	-608.78259	639.30957	128.77092	-644.85248	589.17621	133.12187	-659.56470	521.14069	146.30685	-674.44568	535.85510	259.87054	-499.00931	395.15204	160.32227	-480.54678	351.29965	161.61060	-547.32892	364.49698	135.87465	-522.00897	329.11246	140.08084	-448.50439	191.19022	165.70833	-480.26993	181.79823	239.52994	-377.89542	182.04533	217.60789	-560.17694	80.58406	215.61052	-582.28400	87.30421	172.92386	-511.55630	82.88515	121.33216
1442	5.76400	-366.95892	1038.42297	348.78818	-547.43646	985.12408	385.02136	-414.33469	636.45496	425.78067	-414.23444	574.70428	414.34665	-489.30386	633.11292	415.05090	-479.90250	572.68378	404.66348	-426.28308	488.05545	396.47412	-418.06787	488.77576	284.99225	-332.92615	316.31094	399.00739	-330.03513	270.39911	392.13477	-393.32797	310.50604	398.86636	-382.06155	264.29092	392.52344	-342.40131	108.28727	360.86383	-357.12347	117.19396	280.49734	-267.75848	74.92773	330.11362	-469.33490	49.81457	377.65665	-499.89078	61.52330	322.54105	-474.87375	50.59526	283.58575	-368.87338	1025.51575	235.79260	-539.91229	987.74664	178.55959	-565.28235	614.01825	159.81786	-593.95642	559.37524	170.74466	-615.68732	640.07446	128.68510	-651.91144	589.95728	133.03595	-666.82013	521.96619	146.27788	-681.02026	536.71283	259.73669	-509.00452	392.10477	160.36220	-493.54053	346.17404	162.74648	-557.74628	362.92981	135.64236	-533.24127	326.51895	140.00633	-463.45078	187.04079	165.32671	-495.86099	178.26430	238.98878	-393.27863	175.75705	217.55719	-578.17664	79.18808	214.37762	-599.74622	86.53303	171.64565	-529.10205	80.56487	120.31062
1443	5.76800	-372.13788	1038.38135	348.39279	-552.68915	984.79913	384.86484	-416.43057	636.78583	425.65927	-415.79828	575.10114	414.28381	-491.42676	632.77930	414.71002	-481.53616	572.56812	404.54974	-427.32355	488.25293	396.50189	-419.05148	488.91370	284.99347	-333.54111	316.71521	398.94727	-330.55853	270.84097	392.11383	-393.83481	310.78769	398.85660	-382.55737	264.61227	392.52786	-342.60245	108.57478	360.81882	-357.84320	117.33517	280.66162	-267.93448	75.30741	330.09885	-469.38495	49.79908	377.67746	-500.53958	61.31607	322.25128	-474.92581	50.61078	283.60602	-374.31958	1025.58862	235.47307	-545.35016	987.75104	178.51788	-571.98016	614.30756	159.19473	-600.86755	559.76581	170.15160	-622.56866	640.72479	128.66757	-658.90973	590.80176	133.11397	-673.95142	522.72772	146.28989	-687.61584	537.42566	259.65564	-518.84369	389.04507	160.36461	-504.46332	342.80759	162.69266	-568.63245	360.99643	134.97920	-544.52075	323.80493	139.89040	-478.91595	182.75911	164.48410	-511.44022	174.61624	238.46361	-408.72958	169.52202	217.52924	-596.21570	77.91351	213.19066	-617.42426	85.90561	170.45700	-546.64587	78.25343	119.33923
1444	5.77200	-376.97205	1038.45959	348.11984	-557.31219	984.26709	384.81689	-418.50668	637.14020	425.46609	-417.48312	575.40442	414.23471	-493.40546	632.56616	414.41211	-483.13187	572.41345	404.39218	-428.18744	488.43954	396.59247	-419.94080	489.06207	285.00092	-334.02466	317.12778	398.93732	-331.05255	271.17587	392.07385	-394.38446	311.07498	398.86011	-382.97345	264.90512	392.56320	-342.80801	108.84604	360.78546	-357.65231	117.77681	280.51541	-268.11224	75.67492	330.12616	-469.44040	49.78616	377.72473	-500.38910	61.29767	322.22375	-474.94104	50.62908	283.64014	-379.78467	1025.59851	235.12329	-550.88110	987.72638	178.39497	-578.53192	614.52710	158.71582	-607.57208	560.03833	169.57437	-629.31281	641.35583	128.68188	-666.12317	591.73224	133.24841	-680.89832	523.38885	146.32922	-693.84045	537.92969	259.50879	-529.41748	385.96753	159.97322	-515.22052	339.33435	162.63863	-578.92889	359.10999	135.07834	-555.82849	321.08618	139.75989	-493.54114	178.74710	164.06676	-527.12903	171.09254	237.87636	-424.72327	163.32510	217.09666	-614.28137	76.70896	211.98604	-635.02124	85.33280	169.19920	-564.24908	75.96751	118.38483
1445	5.77600	-382.27887	1038.29004	347.85721	-562.31012	983.74579	384.66263	-420.60956	637.43109	425.33456	-419.15594	575.70160	414.14511	-495.49112	632.40259	414.20312	-484.67569	572.31989	404.23187	-429.16226	488.63751	396.63544	-420.90228	489.21594	284.92868	-334.51031	317.59705	398.90692	-331.58945	271.59653	392.03448	-394.93408	311.37915	398.87662	-383.47079	265.31519	392.45804	-343.03494	109.14363	360.74725	-357.87366	118.11257	280.50552	-268.21924	76.04871	330.13687	-469.47467	49.76552	377.75198	-500.57880	61.25422	322.34088	-475.00275	50.66426	283.66183	-385.13727	1025.65369	234.79832	-556.28857	987.67126	178.23886	-584.90088	614.78400	158.25800	-614.21948	560.24438	169.08331	-636.15381	641.68054	128.93880	-672.78357	592.41589	133.29942	-687.71368	523.84064	146.37331	-700.16821	538.40686	259.46078	-538.84125	382.49564	160.40868	-525.99036	335.88773	162.64427	-589.38818	357.10974	134.94618	-567.78345	318.63794	139.30315	-508.83920	174.50729	163.68748	-542.80267	167.58252	237.29742	-440.50916	157.24699	216.96649	-632.31458	75.54273	210.76460	-652.60999	84.88528	167.95868	-581.77960	73.76179	117.39310
1446	5.78000	-387.74426	1037.97473	347.51437	-567.33820	983.07489	384.51462	-422.70517	637.76752	425.10870	-420.70792	576.05908	414.08826	-497.40912	632.23444	413.95093	-486.24384	572.16351	404.07422	-430.08609	488.82446	396.58942	-421.54990	489.58127	284.92508	-335.01465	318.06424	398.79501	-331.90891	272.05707	391.92746	-395.38022	311.69159	398.88232	-383.57196	265.84073	392.48953	-343.17551	109.46493	360.66013	-358.09946	118.40755	280.48822	-268.30966	76.44284	330.13013	-469.71533	49.79548	377.88367	-500.64392	61.20929	322.36557	-474.91556	50.70346	283.64551	-390.55469	1025.64429	234.53865	-561.81641	987.59772	178.12886	-591.26501	614.84564	157.92720	-620.55219	560.38342	168.65459	-642.22443	642.23584	128.79565	-679.18420	593.02032	133.46458	-694.36676	524.23975	146.41887	-706.14050	538.61890	259.33832	-548.62195	379.14868	160.46812	-537.10901	332.45123	162.36783	-599.64258	355.05508	134.85463	-579.16095	315.98688	139.11905	-524.14636	170.33253	163.21269	-558.56628	164.13977	236.72304	-456.45789	151.12088	216.86913	-650.40112	74.54543	209.60736	-670.18768	84.40675	166.72461	-599.45764	71.59489	116.42282
